<svg width="20" height="19" viewBox="0 0 20 19" fill="none" xmlns="http://www.w3.org/2000/svg">
<path d="M4.50008 4.99991C5.96143 3.53856 7.59363 2.4189 8.69761 1.74078C9.50222 1.24656 10.498 1.24656 11.3026 1.74078C12.4065 2.4189 14.0387 3.53856 15.5001 4.99991C18.6685 8.16828 18.5001 9.99991 18.5001 12.9999C18.5001 14.4097 18.3897 15.5987 18.2726 16.4631C18.1494 17.3725 17.3563 17.9999 16.4385 17.9999H15.0001C13.8955 17.9999 13.0001 17.1045 13.0001 15.9999V13.9999C13.0001 13.2043 12.684 12.4412 12.1214 11.8786C11.5588 11.316 10.7957 10.9999 10.0001 10.9999C9.20444 10.9999 8.44138 11.316 7.87877 11.8786C7.31616 12.4412 7.00009 13.2043 7.00009 13.9999V15.9999C7.00009 17.1045 6.10466 17.9999 5.00009 17.9999H3.56164C2.64391 17.9999 1.85074 17.3725 1.72757 16.4631C1.61051 15.5987 1.50009 14.4097 1.50009 12.9999C1.50009 9.99991 1.33169 8.1683 4.50008 4.99991Z" stroke="#FCFCFC" stroke-width="1.5" stroke-linecap="round" stroke-linejoin="round"/>
</svg>
