<svg width="12" height="11" viewBox="0 0 12 11" fill="none" xmlns="http://www.w3.org/2000/svg">
<path d="M10.4997 1.125H10.5097M8.99971 5.3709C9.12312 6.0965 8.98097 6.83754 8.59347 7.48864C8.20597 8.13973 7.59285 8.66772 6.84133 8.99751C6.08981 9.3273 5.23815 9.44209 4.40749 9.32555C3.57683 9.20901 2.80947 8.86709 2.21455 8.34841C1.61962 7.82973 1.22744 7.1607 1.09377 6.43649C0.96011 5.71228 1.09177 4.96976 1.47003 4.31455C1.84829 3.65934 2.45389 3.12479 3.20069 2.78695C3.94749 2.44911 4.79746 2.32518 5.62971 2.43277C6.47863 2.54253 7.26456 2.88741 7.8714 3.41649C8.47824 3.94556 8.87382 4.63077 8.99971 5.3709Z" stroke="#D9D9D9" stroke-width="2" stroke-linecap="round" stroke-linejoin="round"/>
</svg>
