<svg width="279" height="127" viewBox="0 0 279 127" fill="none" xmlns="http://www.w3.org/2000/svg">
<path fill-rule="evenodd" clip-rule="evenodd" d="M103.026 33.1744C94.7427 38.1897 91.4151 57.8874 79.8773 54.5439C79.8337 54.5294 79.8046 54.5148 79.761 54.4857C79.5721 54.4131 79.3832 54.2968 79.2088 54.1223C78.9618 53.8752 78.831 53.599 78.7729 53.3955C78.7584 53.3373 78.7438 53.2792 78.7293 53.2356C78.7293 53.2065 78.7148 53.1774 78.7148 53.1483C78.584 52.4069 78.4968 51.6801 78.4532 50.9823V50.9678C77.7267 38.3932 91.7057 33.4652 102.967 33C103.069 33 103.098 33.1163 103.026 33.1744Z" fill="#417538"/>
<path fill-rule="evenodd" clip-rule="evenodd" d="M66.988 61.3328C66.9735 61.3618 66.9735 61.3909 66.9445 61.42C66.9154 61.5799 66.8282 61.7398 66.712 61.8706C66.5521 62.0596 66.3341 62.1759 66.1016 62.2195C66.0871 62.2341 66.0726 62.2341 66.0581 62.2486C54.7818 64.4291 50.4079 52.6687 50.001 43.2632C49.9865 43.1615 50.1318 43.1324 50.1899 43.2196C54.2296 49.645 69.5746 52.2907 66.988 61.3328Z" fill="#7DA761"/>
<path fill-rule="evenodd" clip-rule="evenodd" d="M53.9971 89.0695C53.9099 89.0695 53.8663 88.9532 53.939 88.895C58.2257 86.1039 60.0421 76.0007 65.9854 77.4398C65.9999 77.4398 66.029 77.4398 66.0435 77.4544C66.058 77.4544 66.0871 77.4689 66.1162 77.4689C66.2905 77.5125 66.494 77.6143 66.6538 77.8323C66.7991 78.0213 66.8573 78.2394 66.8573 78.3993C66.8573 78.3993 66.8573 78.3993 66.8573 78.4138C68.0924 85.8568 60.3037 88.7642 53.9971 89.0695Z" fill="#98BE88"/>
<path d="M91.2988 70.8834C91.604 71.1887 91.6766 71.5666 91.604 71.9737C91.0372 74.6194 89.5986 77.0762 87.448 78.8206C85.2974 80.5941 82.6091 81.7571 79.8191 81.7571C73.1638 81.7571 67.7727 76.4802 67.7727 69.8513C67.7727 63.1933 73.1783 57.771 79.8191 57.771C82.3911 57.771 84.9196 58.6141 86.954 60.1987C88.9593 61.7541 90.4996 63.8329 91.2552 66.2461C91.4877 66.9584 91.0663 67.7289 90.3543 67.9905C89.7149 68.1359 88.9593 67.8015 88.6977 67.0892C87.3027 63.4986 83.6699 60.5476 79.8191 60.5476C74.646 60.5476 70.4901 64.7052 70.4901 69.8513C70.4901 74.9538 74.646 78.8497 79.8191 78.8497C83.5536 78.8497 86.954 76.4656 88.3925 73.064H79.3977C78.7147 73.064 78.0318 72.4534 78.0318 71.6975C78.0318 70.9415 78.7147 70.331 79.3977 70.331H90.238C90.6885 70.3601 91.0663 70.5491 91.2988 70.8834Z" fill="#45484A"/>
<path d="M106.6 75.1572C106.6 75.9131 105.99 76.5237 105.278 76.5237C104.522 76.5237 103.912 75.9131 103.912 75.1572C103.912 73.0348 102.212 71.2612 100.018 71.2612C97.8669 71.2612 96.1232 73.0348 96.1232 75.1572V80.4923C96.1232 81.2046 95.5128 81.7715 94.8008 81.7715C94.0452 81.7715 93.4349 81.2191 93.4349 80.4923V75.1572C93.4349 71.5665 96.3847 68.5864 100.003 68.5864C103.65 68.5864 106.6 71.5665 106.6 75.1572Z" fill="#45484A"/>
<path d="M121.364 75.1572C121.364 75.9131 120.754 76.5237 120.042 76.5237H111.119C111.73 77.9192 113.154 79.0967 114.781 79.0967C115.987 79.0967 117.121 78.4862 117.876 77.5849C118.298 77.0179 119.155 76.8725 119.766 77.2796C120.376 77.7302 120.449 78.6025 120.027 79.1694C118.748 80.7975 116.859 81.7424 114.781 81.7424C111.149 81.7424 108.213 78.7914 108.213 75.1572C108.213 71.5665 111.163 68.5864 114.781 68.5864C116.554 68.5864 118.138 69.2551 119.431 70.5053C120.652 71.7119 121.364 73.3836 121.364 75.1572ZM118.458 73.8343C117.847 72.4387 116.423 71.2612 114.796 71.2612C113.096 71.2612 111.628 72.3224 111.134 73.8343H118.458Z" fill="#45484A"/>
<path d="M136.142 75.1572C136.142 75.9131 135.532 76.5237 134.82 76.5237H125.898C126.508 77.9192 127.932 79.0967 129.56 79.0967C130.766 79.0967 131.899 78.4862 132.655 77.5849C133.076 77.0179 133.933 76.8725 134.544 77.2796C135.154 77.7302 135.227 78.6025 134.805 79.1694C133.527 80.7975 131.638 81.7424 129.56 81.7424C125.927 81.7424 122.991 78.7914 122.991 75.1572C122.991 71.5665 125.941 68.5864 129.56 68.5864C131.332 68.5864 132.916 69.2551 134.21 70.5053C135.416 71.7119 136.142 73.3836 136.142 75.1572ZM133.221 73.8343C132.611 72.4387 131.187 71.2612 129.56 71.2612C127.859 71.2612 126.392 72.3224 125.898 73.8343H133.221Z" fill="#45484A"/>
<path d="M150.95 75.1572V80.4923C150.95 81.2046 150.296 81.7715 149.584 81.7715C148.828 81.7715 148.276 81.2191 148.276 80.4923V75.1572C148.276 73.0348 146.532 71.2612 144.352 71.2612C142.202 71.2612 140.458 73.0348 140.458 75.1572V80.2597C140.458 81.0156 139.848 81.757 139.136 81.757C138.38 81.757 137.77 81.0156 137.77 80.2597V75.1572C137.77 71.5665 140.72 68.5864 144.338 68.5864C148 68.5864 150.95 71.5665 150.95 75.1572Z" fill="#45484A"/>
<path d="M165.67 69.9383V86.0744C165.67 89.665 162.72 92.6597 159.102 92.6597C155.469 92.6597 152.534 89.665 152.534 86.0744C152.534 85.3184 153.144 84.7079 153.899 84.7079C154.611 84.7079 155.222 85.3184 155.222 86.0744C155.222 88.2259 156.966 90.0139 159.116 90.0139C161.31 90.0139 163.011 88.2404 163.011 86.0744V80.5358C161.921 81.2917 160.511 81.815 159.116 81.815C155.483 81.815 152.548 78.864 152.548 75.2297V69.9383C152.548 69.1823 153.158 68.5863 153.914 68.5863C154.626 68.5863 155.236 69.1823 155.236 69.9383V75.2297C155.236 77.3812 156.98 79.1257 159.131 79.1257C161.209 79.1257 162.909 77.4975 163.025 75.3751V69.9237C163.025 69.1678 163.635 68.5718 164.391 68.5718C165.074 68.5863 165.67 69.1823 165.67 69.9383Z" fill="#45484A"/>
<path d="M180.448 75.1572C180.448 75.9131 179.838 76.5237 179.126 76.5237C178.37 76.5237 177.76 75.9131 177.76 75.1572C177.76 73.0348 176.06 71.2612 173.865 71.2612C171.715 71.2612 169.971 73.0348 169.971 75.1572V80.4923C169.971 81.2046 169.361 81.7715 168.649 81.7715C167.893 81.7715 167.283 81.2191 167.283 80.4923V75.1572C167.283 71.5665 170.233 68.5864 173.851 68.5864C177.498 68.5864 180.448 71.5665 180.448 75.1572Z" fill="#45484A"/>
<path d="M181.698 80.4196V69.9384C181.698 69.1825 182.308 68.5864 183.02 68.5864C183.776 68.5864 184.386 69.1825 184.386 69.9384V80.4196C184.386 81.1319 183.776 81.7424 183.02 81.7424C182.293 81.7424 181.698 81.1319 181.698 80.4196Z" fill="#45484A"/>
<path d="M198.205 80.4925C198.205 81.2048 197.638 81.7718 196.883 81.7718H186.943C186.42 81.7718 185.883 81.5101 185.694 81.0885C185.548 80.478 185.578 79.9983 185.926 79.5767L193.628 71.247C191.361 71.247 189.167 71.2034 186.9 71.2034C186.188 71.2034 185.578 70.6364 185.578 69.8805C185.578 69.1682 186.188 68.5576 186.9 68.5576L196.796 68.6012C197.29 68.6012 197.784 68.9065 197.973 69.4008V69.3717C198.234 69.8223 198.162 70.4329 197.74 70.8545H197.784L189.966 79.1406H196.839C197.595 79.126 198.205 79.7366 198.205 80.4925Z" fill="#45484A"/>
<path d="M212.548 75.1426C212.548 75.8986 211.937 76.5091 211.225 76.5091H202.303C202.913 77.9047 204.337 79.0822 205.965 79.0822C207.171 79.0822 208.304 78.4716 209.06 77.5703C209.481 77.0034 210.339 76.858 210.949 77.265C211.559 77.7157 211.632 78.5879 211.211 79.1549C209.932 80.783 208.043 81.757 205.965 81.757C202.332 81.757 199.397 78.7769 199.397 75.1572C199.397 71.5665 202.347 68.5864 205.965 68.5864C207.738 68.5864 209.322 69.2551 210.615 70.5053C211.836 71.6974 212.548 73.3691 212.548 75.1426ZM209.641 73.8198C209.031 72.4242 207.607 71.2467 205.979 71.2467C204.279 71.2467 202.812 72.3079 202.318 73.8198H209.641Z" fill="#45484A"/>
</svg>
