<?xml version="1.0" encoding="utf-8"?>
<!-- Generator: Adobe Illustrator 27.0.1, SVG Export Plug-In . SVG Version: 6.00 Build 0)  -->
<svg version="1.1" id="Layer_1" xmlns="http://www.w3.org/2000/svg" xmlns:xlink="http://www.w3.org/1999/xlink" x="0px" y="0px"
	 viewBox="0 0 1920 1080" style="enable-background:new 0 0 1920 1080;" xml:space="preserve">
<style type="text/css">
	.st0{fill-rule:evenodd;clip-rule:evenodd;fill:#417538;}
	.st1{fill-rule:evenodd;clip-rule:evenodd;fill:#7DA761;}
	.st2{fill-rule:evenodd;clip-rule:evenodd;fill:#98BE88;}
	.st3{fill:#45484A;}
</style>
<g>
	<g>
		<path class="st0" d="M770.3,336C713.3,370.5,690.4,506,611,483c-0.3-0.1-0.5-0.2-0.8-0.4c-1.3-0.5-2.6-1.3-3.8-2.5
			c-1.7-1.7-2.6-3.6-3-5c-0.1-0.4-0.2-0.8-0.3-1.1c0-0.2-0.1-0.4-0.1-0.6c-0.9-5.1-1.5-10.1-1.8-14.9l0-0.1
			c-5-86.5,91.2-120.4,168.7-123.6C770.6,334.8,770.8,335.6,770.3,336z"/>
		<path class="st1" d="M522.3,529.7c-0.1,0.2-0.1,0.4-0.3,0.6c-0.2,1.1-0.8,2.2-1.6,3.1c-1.1,1.3-2.6,2.1-4.2,2.4
			c-0.1,0.1-0.2,0.1-0.3,0.2c-77.6,15-107.7-65.9-110.5-130.6c-0.1-0.7,0.9-0.9,1.3-0.3C434.5,449.3,540.1,467.5,522.3,529.7z"/>
		<path class="st2" d="M432.9,720.5c-0.6,0-0.9-0.8-0.4-1.2c29.5-19.2,42-88.7,82.9-78.8c0.1,0,0.3,0,0.4,0.1c0.1,0,0.3,0.1,0.5,0.1
			c0,0,0,0,0,0c1.2,0.3,2.6,1,3.7,2.5c1,1.3,1.4,2.8,1.4,3.9c0,0,0,0,0,0c0,0,0,0,0,0.1C529.9,698.4,476.3,718.4,432.9,720.5z"/>
	</g>
	<g>
		<g>
			<path class="st3" d="M689.6,595.4c2.1,2.1,2.6,4.7,2.1,7.5c-3.9,18.2-13.8,35.1-28.6,47.1c-14.8,12.2-33.3,20.2-52.5,20.2
				c-45.8,0-82.9-36.3-82.9-81.9c0-45.8,37.2-83.1,82.9-83.1c17.7,0,35.1,5.8,49.1,16.7c13.8,10.7,24.4,25,29.6,41.6
				c1.6,4.9-1.3,10.2-6.2,12c-4.4,1-9.6-1.3-11.4-6.2c-9.6-24.7-34.6-45-61.1-45c-35.6,0-64.2,28.6-64.2,64
				c0,35.1,28.6,61.9,64.2,61.9c25.7,0,49.1-16.4,59-39.8h-61.9c-4.7,0-9.4-4.2-9.4-9.4c0-5.2,4.7-9.4,9.4-9.4h74.6
				C685.4,591.8,688,593.1,689.6,595.4z"/>
			<path class="st3" d="M794.9,624.8c0,5.2-4.2,9.4-9.1,9.4c-5.2,0-9.4-4.2-9.4-9.4c0-14.6-11.7-26.8-26.8-26.8
				c-14.8,0-26.8,12.2-26.8,26.8v36.7c0,4.9-4.2,8.8-9.1,8.8c-5.2,0-9.4-3.8-9.4-8.8v-36.7c0-24.7,20.3-45.2,45.2-45.2
				C774.6,579.6,794.9,600.1,794.9,624.8z"/>
			<path class="st3" d="M896.5,624.8c0,5.2-4.2,9.4-9.1,9.4h-61.4c4.2,9.6,14,17.7,25.2,17.7c8.3,0,16.1-4.2,21.3-10.4
				c2.9-3.9,8.8-4.9,13-2.1c4.2,3.1,4.7,9.1,1.8,13c-8.8,11.2-21.8,17.7-36.1,17.7c-25,0-45.2-20.3-45.2-45.3
				c0-24.7,20.3-45.2,45.2-45.2c12.2,0,23.1,4.6,32,13.2C891.6,601.1,896.5,612.6,896.5,624.8z M876.5,615.7
				c-4.2-9.6-14-17.7-25.2-17.7c-11.7,0-21.8,7.3-25.2,17.7H876.5z"/>
			<path class="st3" d="M998.2,624.8c0,5.2-4.2,9.4-9.1,9.4h-61.4c4.2,9.6,14,17.7,25.2,17.7c8.3,0,16.1-4.2,21.3-10.4
				c2.9-3.9,8.8-4.9,13-2.1c4.2,3.1,4.7,9.1,1.8,13c-8.8,11.2-21.8,17.7-36.1,17.7c-25,0-45.2-20.3-45.2-45.3
				c0-24.7,20.3-45.2,45.2-45.2c12.2,0,23.1,4.6,32,13.2C993.2,601.1,998.2,612.6,998.2,624.8z M978.1,615.7
				c-4.2-9.6-14-17.7-25.2-17.7c-11.7,0-21.8,7.3-25.2,17.7H978.1z"/>
			<path class="st3" d="M1100.1,624.8v36.7c0,4.9-4.5,8.8-9.4,8.8c-5.2,0-9-3.8-9-8.8v-36.7c0-14.6-12-26.8-27-26.8
				c-14.8,0-26.8,12.2-26.8,26.8v35.1c0,5.2-4.2,10.3-9.1,10.3c-5.2,0-9.4-5.1-9.4-10.3v-35.1c0-24.7,20.3-45.2,45.2-45.2
				C1079.8,579.6,1100.1,600.1,1100.1,624.8z"/>
			<path class="st3" d="M1201.4,588.9v111c0,24.7-20.3,45.3-45.2,45.3c-25,0-45.2-20.6-45.2-45.3c0-5.2,4.2-9.4,9.4-9.4
				c4.9,0,9.1,4.2,9.1,9.4c0,14.8,12,27.1,26.8,27.1c15.1,0,26.8-12.2,26.8-27.1v-38.1c-7.5,5.2-17.2,8.8-26.8,8.8
				c-25,0-45.2-20.3-45.2-45.3v-36.4c0-5.2,4.2-9.3,9.4-9.3c4.9,0,9.1,4.1,9.1,9.3v36.4c0,14.8,12,26.8,26.8,26.8
				c14.3,0,26-11.2,26.8-25.8v-37.5c0-5.2,4.2-9.3,9.4-9.3C1197.3,579.6,1201.4,583.7,1201.4,588.9z"/>
			<path class="st3" d="M1303.1,624.8c0,5.2-4.2,9.4-9.1,9.4c-5.2,0-9.4-4.2-9.4-9.4c0-14.6-11.7-26.8-26.8-26.8
				c-14.8,0-26.8,12.2-26.8,26.8v36.7c0,4.9-4.2,8.8-9.1,8.8c-5.2,0-9.4-3.8-9.4-8.8v-36.7c0-24.7,20.3-45.2,45.2-45.2
				C1282.8,579.6,1303.1,600.1,1303.1,624.8z"/>
			<path class="st3" d="M1311.7,661v-72.1c0-5.2,4.2-9.3,9.1-9.3c5.2,0,9.4,4.1,9.4,9.3V661c0,4.9-4.2,9.1-9.4,9.1
				C1315.8,670.1,1311.7,665.9,1311.7,661z"/>
			<path class="st3" d="M1425.3,661.5c0,4.9-3.9,8.8-9.1,8.8h-68.4c-3.6,0-7.3-1.8-8.6-4.7c-1-4.2-0.8-7.5,1.6-10.4l53-57.3
				c-15.6,0-30.7-0.3-46.3-0.3c-4.9,0-9.1-3.9-9.1-9.1c0-4.9,4.2-9.1,9.1-9.1l68.1,0.3c3.4,0,6.8,2.1,8.1,5.5V585
				c1.8,3.1,1.3,7.3-1.6,10.2h0.3l-53.8,57h47.3C1421.1,652.1,1425.3,656.3,1425.3,661.5z"/>
			<path class="st3" d="M1524,624.7c0,5.2-4.2,9.4-9.1,9.4h-61.4c4.2,9.6,14,17.7,25.2,17.7c8.3,0,16.1-4.2,21.3-10.4
				c2.9-3.9,8.8-4.9,13-2.1c4.2,3.1,4.7,9.1,1.8,13c-8.8,11.2-21.8,17.9-36.1,17.9c-25,0-45.2-20.5-45.2-45.4
				c0-24.7,20.3-45.2,45.2-45.2c12.2,0,23.1,4.6,32,13.2C1519.1,601,1524,612.5,1524,624.7z M1504,615.6c-4.2-9.6-14-17.7-25.2-17.7
				c-11.7,0-21.8,7.3-25.2,17.7H1504z"/>
		</g>
	</g>
</g>
</svg>
